<svg xmlns="http://www.w3.org/2000/svg" width="40" height="40" viewBox="0 0 40 40">
  <g id="Group_4736" data-name="Group 4736" transform="translate(0 0)">
    <g id="Ellipse_292" data-name="Ellipse 292" transform="translate(0 0)" opacity="0">
      <circle id="Ellipse_547" data-name="Ellipse 547" cx="20" cy="20" r="20" transform="translate(0 0)" fill="#333f48"/>
    </g>
    <g id="Ellipse_292-2" data-name="Ellipse 292" transform="translate(0 0)" opacity="0">
      <circle id="Ellipse_548" data-name="Ellipse 548" cx="20" cy="20" r="20" transform="translate(0 0)" fill="#333f48"/>
    </g>
    <g id="Group_5136" data-name="Group 5136" transform="translate(7.794 12.327)">
      <path id="Path_3533" data-name="Path 3533" d="M262.142,302.712c-4.46,0-8.736-2.553-12.042-7.189a.833.833,0,0,1,0-.967c3.305-4.636,7.582-7.189,12.042-7.189s8.736,2.553,12.042,7.189a.833.833,0,0,1,0,.967C270.879,300.159,266.6,302.712,262.142,302.712Zm-10.33-7.672c2.927,3.878,6.577,6.006,10.33,6.006s7.4-2.128,10.33-6.006c-2.927-3.878-6.577-6.006-10.33-6.006S254.74,291.161,251.812,295.04Z" transform="translate(-249.946 -287.367)" fill="#333f48"/>
    </g>
    <g id="Group_5137" data-name="Group 5137" transform="translate(16.702 16.702)">
      <path id="Path_3534" data-name="Path 3534" d="M296,314.96a3.3,3.3,0,1,1,3.3-3.3A3.3,3.3,0,0,1,296,314.96Zm0-4.93a1.632,1.632,0,1,0,1.632,1.632A1.634,1.634,0,0,0,296,310.03Z" transform="translate(-292.703 -308.363)" fill="#333f48"/>
    </g>
  </g>
</svg>
