<svg xmlns="http://www.w3.org/2000/svg" xmlns:xlink="http://www.w3.org/1999/xlink" width="43.885" height="19.154" viewBox="0 0 43.885 19.154"><defs><style>.a{fill:#ed1c24;}.b{clip-path:url(#a);}</style><clipPath id="a"><rect class="a" width="43.885" height="19.154"/></clipPath></defs><g transform="translate(0 0)"><g class="b" transform="translate(0 0)"><path class="a" d="M46.593,1.656A4.622,4.622,0,0,0,43.961.238c-.465-.1-.95-.122-1.425-.182a1.464,1.464,0,0,1-.2-.056H41.239c-.029.018-.057.05-.088.054-.414.042-.829.071-1.242.12a10.653,10.653,0,0,0-3.231.925,12.885,12.885,0,0,0-4.646,3.625,14.353,14.353,0,0,0-2.379,4.308,12.546,12.546,0,0,0-.632,2.5c-1.8,0-2.38,0-2.667,0,.023-.077.038-.134.056-.19q1.326-4.187,2.65-8.373a3.547,3.547,0,0,0,.187-1.223A1.692,1.692,0,0,0,28.122.168,2.84,2.84,0,0,0,26.568.059a4.26,4.26,0,0,0-.778.229q-5.335.006-10.67,0a1.162,1.162,0,0,0-1.249,1.437,1.105,1.105,0,0,0,1.079.921c1.7-.016,5.766-.009,7.87-.007L20.285,5.024c-3.1,0-7.173,0-9.525-.011a1.183,1.183,0,0,0,.165,2.36q2,0,4,0h2.866L15.316,9.707q-1.9,0-3.811,0a1.179,1.179,0,0,0-1.087,1.7,1.069,1.069,0,0,0,1.065.651h1.531A3.178,3.178,0,0,0,12.45,13.5a1.218,1.218,0,0,0,.862,1.434,2.5,2.5,0,0,0,.592.054q3.357.006,6.712,0h.224c-.025.085-.038.138-.056.189q-.479,1.5-.957,3c-.211.662.02.978.713.978h2.326a1.278,1.278,0,0,0,1.365-1c.321-1,.645-2.01.962-3.016a.181.181,0,0,1,.209-.154c.325.006,2.408.006,3.829,0a5.142,5.142,0,0,0,1.9,2.772A7.227,7.227,0,0,0,35.281,19.1a1.6,1.6,0,0,1,.26.055h.518a2.747,2.747,0,0,1,.375-.055,14.8,14.8,0,0,0,4.64-.751,6.384,6.384,0,0,0,2.543-1.468,3.8,3.8,0,0,0,.893-1.606q.379-1.186.734-2.38c.283-.947.558-1.9.832-2.847a1.235,1.235,0,0,0-1.018-1.609,4.836,4.836,0,0,0-.877-.062c-.594-.009-1.189.005-1.783,0-.563-.009-1.124-.049-1.686-.052a2.849,2.849,0,0,0-2.2.91,2.741,2.741,0,0,0-.771,1.764,1.235,1.235,0,0,0,1.152,1.326c.74.049,1.487.011,2.28.011-.06.224-.1.38-.143.532a14.558,14.558,0,0,0-.464,1.5c-.108.543-.484.683-.927.78a9.378,9.378,0,0,1-2.7.162,3.927,3.927,0,0,1-2.873-1.318,3.329,3.329,0,0,1-.713-1.625,6.494,6.494,0,0,1,.513-3.439,8.709,8.709,0,0,1,2.284-3.357,5.985,5.985,0,0,1,3.173-1.6,9.317,9.317,0,0,1,1.844-.109,3.122,3.122,0,0,1,1.929.834c.312.279.6.586.922.852a1.69,1.69,0,0,0,1.877.135A2.718,2.718,0,0,0,47.4,4.014c.008-.022.035-.038.053-.057V3.04a10.441,10.441,0,0,0-.863-1.384M23.63,6.285q-.811,2.541-1.624,5.081c-.03.093-.052.165-.183.164-1.323-.005-2.647,0-3.97,0-.026,0-.052,0-.127-.011l5.912-5.4.033.014c-.013.052-.024.106-.04.158" transform="translate(-3.571 0)"/><path class="a" d="M4.058,7.955c-1,.013-1.991,0-2.987.006a.85.85,0,0,0-.8.438c-.1.175-.182.356-.273.535v.344c.015.01.04.018.044.03a1.15,1.15,0,0,0,1.265,1c.88.009,1.762.012,2.642,0a1.145,1.145,0,0,0,1.069-.553,1.176,1.176,0,0,0,.006-1.231,1.021,1.021,0,0,0-.967-.568" transform="translate(0 -2.937)"/><path class="a" d="M10.3,2.823c.267-.014.537,0,.8,0h.863a1.092,1.092,0,0,0,1.075-1C13.1,1.378,12.864.647,12.314.58,11.649.5,10.971.51,10.3.5a1.239,1.239,0,0,0-.436.081A1.151,1.151,0,0,0,9.2,1.993a1.061,1.061,0,0,0,1.1.831" transform="translate(-3.38 -0.183)"/><path class="a" d="M5.773,15.385A1.154,1.154,0,0,0,4.64,16.542a1.181,1.181,0,0,0,1.115,1.2,1.182,1.182,0,0,0,.018-2.362" transform="translate(-1.713 -5.681)"/></g></g></svg>