<svg xmlns="http://www.w3.org/2000/svg" xmlns:xlink="http://www.w3.org/1999/xlink" width="45.119" height="18.838" viewBox="0 0 45.119 18.838"><defs><style>.a{fill:#ed1c24;}.b{clip-path:url(#a);}</style><clipPath id="a"><rect class="a" width="45.119" height="18.838"/></clipPath></defs><g class="b"><path class="a" d="M115.588,23.518c-.365-.075-.731-.147-1.1-.225a4.073,4.073,0,0,1-2.028-1.023,2.906,2.906,0,0,1-1-2.071,2.489,2.489,0,0,1,.615-1.513,2.765,2.765,0,0,1,1.666-1.065,1.636,1.636,0,0,1,1.824.65,2.612,2.612,0,0,0,3.369.911,2.9,2.9,0,0,0,1.716-1.884,1.327,1.327,0,0,0-1.127-1.812,3.612,3.612,0,0,0-.581-.055q-5.717,0-11.433,0a1.1,1.1,0,0,1-1.077-.6,1.167,1.167,0,0,1,.135-1.327,1.066,1.066,0,0,1,.855-.4c2.226,0,4.453,0,6.679.008a.413.413,0,0,0,.464-.328c.17-.5.367-1,.569-1.545h-.333c-2.651,0-5.3-.006-7.952.005a1.066,1.066,0,0,1-1.016-.554,1.148,1.148,0,0,1,.047-1.262,1.185,1.185,0,0,1,1.1-.507q4.372-.006,8.745,0a.373.373,0,0,0,.429-.308c.142-.444.33-.874.51-1.338h-.332c-1.811,0-3.623,0-5.434,0a1.1,1.1,0,0,1-1.135-1.173,1.1,1.1,0,0,1,1.13-1.15q7.684,0,15.367,0a1.309,1.309,0,0,1,1.356,1.714,2.746,2.746,0,0,1-2.24,2.184,1.086,1.086,0,0,1-.254.007c-1.547,0-3.094.005-4.641,0a.415.415,0,0,0-.479.307c-.262.727-.557,1.442-.849,2.187.632,0,1.233-.015,1.834,0a4.2,4.2,0,0,1,3.117,1.305,3.122,3.122,0,0,1,.817,1.724,7.533,7.533,0,0,1-1.205,5.056A8.624,8.624,0,0,1,122,21.485a7.932,7.932,0,0,1-3.031,1.627c-.555.161-1.136.236-1.7.352a.3.3,0,0,0-.086.053Z" transform="translate(-99.681 -4.68)"/><path class="a" d="M480.484,18.838c-.223-.038-.445-.081-.669-.112a6.318,6.318,0,0,1-3.38-1.467,5.5,5.5,0,0,1-1.791-3.43,9.141,9.141,0,0,1,.289-3.88,14.973,14.973,0,0,1,1.3-3.256,13.447,13.447,0,0,1,1.618-2.347,13.3,13.3,0,0,1,3.021-2.588A10.616,10.616,0,0,1,484.339.347c.631-.136,1.279-.2,1.919-.292A.442.442,0,0,0,486.372,0h1.642a.681.681,0,0,0,.143.055c.412.06.831.085,1.234.178a4.97,4.97,0,0,1,2.363,1.206A4.322,4.322,0,0,1,492.769,3v.849a2.738,2.738,0,0,1-1.8,1.834,1.632,1.632,0,0,1-1.81-.435c-.133-.146-.279-.281-.419-.421a3.678,3.678,0,0,0-2.6-1.083,7.38,7.38,0,0,0-1.109.106,5.892,5.892,0,0,0-3.182,1.45,8.708,8.708,0,0,0-2.76,4.448,5.3,5.3,0,0,0-.13,2.722,3.1,3.1,0,0,0,1.251,1.876,4.672,4.672,0,0,0,2.517.755,9.978,9.978,0,0,0,1.4-.058,8.99,8.99,0,0,0,1.385-.259.687.687,0,0,0,.379-.385c.2-.515.351-1.047.515-1.575.06-.194.1-.393.173-.659-.749,0-1.453.019-2.156-.007a1.174,1.174,0,0,1-1.04-.641A1.856,1.856,0,0,1,483.6,9.6a2.743,2.743,0,0,1,2.581-1.4c1.27.028,2.54.037,3.81.061a2.225,2.225,0,0,1,.549.073,1.2,1.2,0,0,1,.874,1.554c-.249.9-.516,1.8-.789,2.7-.255.837-.564,1.658-.783,2.5a3.516,3.516,0,0,1-1.48,2.075,8.152,8.152,0,0,1-2.518,1.113,14.367,14.367,0,0,1-3.063.5,1.648,1.648,0,0,0-.256.055Z" transform="translate(-447.65)"/><path class="a" d="M0,75.769c.132-.322.231-.681.572-.84a1.841,1.841,0,0,1,.716-.17c.839-.02,1.678-.015,2.517,0a1.168,1.168,0,0,1,1.15.58,1.15,1.15,0,0,1-.15,1.372,1.069,1.069,0,0,1-.647.348c-1.055.036-2.111.019-3.167.015a1.039,1.039,0,0,1-.937-.847A.567.567,0,0,0,0,76.109Z" transform="translate(-0.001 -70.508)"/><path class="a" d="M101.687,7.078a7.664,7.664,0,0,1-1.14-.092,1.14,1.14,0,0,1-.78-1.171c.145-.762.485-1.036,1.119-1.076a15.466,15.466,0,0,1,1.61,0,1.059,1.059,0,0,1,1.1,1.194,1.069,1.069,0,0,1-1.117,1.121h-.791l0,.026" transform="translate(-94.101 -4.45)"/><path class="a" d="M53.011,149.829a1.126,1.126,0,0,1-1.1,1.2,1.161,1.161,0,0,1-1.111-1.177,1.108,1.108,0,0,1,1.127-1.147,1.081,1.081,0,0,1,1.088,1.121" transform="translate(-47.916 -140.279)"/></g></svg>