<svg xmlns="http://www.w3.org/2000/svg" xmlns:xlink="http://www.w3.org/1999/xlink" width="21.616" height="18.838" viewBox="0 0 21.616 18.838">
  <defs>
    <clipPath id="clip-path">
      <rect id="Rectangle_58125" data-name="Rectangle 58125" width="10.754" height="4.694" fill="#ed1c24"/>
    </clipPath>
    <clipPath id="clip-path-2">
      <rect id="Rectangle_58126" data-name="Rectangle 58126" width="18.794" height="18.838" fill="#ed1c24"/>
    </clipPath>
  </defs>
  <g id="voice-plan-icon" transform="translate(-301 -449)">
    <g id="Group_1385" data-name="Group 1385" transform="translate(311.861 450.576)">
      <g id="Group_1384" data-name="Group 1384" clip-path="url(#clip-path)">
        <path id="Path_80496" data-name="Path 80496" d="M18.722.405a1.133,1.133,0,0,0-.645-.347c-.114-.026-.232-.03-.349-.045A.359.359,0,0,1,17.679,0h-.268c-.007,0-.014.012-.022.013-.1.01-.2.017-.3.029a2.61,2.61,0,0,0-.792.227,3.158,3.158,0,0,0-1.139.892,3.518,3.518,0,0,0-.581,1.053,3.075,3.075,0,0,0-.155.611h-.653l.014-.046L14.428.726a.869.869,0,0,0,.046-.3A.415.415,0,0,0,14.2.04a.7.7,0,0,0-.381-.027,1.044,1.044,0,0,0-.19.056H11.011a.285.285,0,0,0-.31.352.271.271,0,0,0,.265.226H12.9l-.619.585H9.942a.29.29,0,0,0,.04.578h1.682l-.607.572h-.934a.289.289,0,0,0-.266.417.262.262,0,0,0,.261.159h.375a.779.779,0,0,0-.139.353.3.3,0,0,0,.211.351.614.614,0,0,0,.145.013h1.7c-.006.021-.009.034-.014.046q-.118.368-.232.734c-.052.163,0,.24.175.24h.57a.31.31,0,0,0,.334-.245l.232-.739a.044.044,0,0,1,.051-.038h.939a1.26,1.26,0,0,0,.464.679,1.772,1.772,0,0,0,1.016.328.392.392,0,0,1,.063.013h.127a.673.673,0,0,1,.092-.013A3.626,3.626,0,0,0,17.369,4.5a1.565,1.565,0,0,0,.623-.36.929.929,0,0,0,.219-.393q.093-.291.18-.584.1-.348.2-.7a.3.3,0,0,0-.249-.394,1.185,1.185,0,0,0-.215-.015h-.437c-.146,0-.276-.012-.413-.013a.7.7,0,0,0-.542.223.672.672,0,0,0-.189.432.3.3,0,0,0,.282.325c.181.012.365,0,.559,0-.015.055-.023.093-.035.131a3.567,3.567,0,0,0-.114.367c-.026.133-.118.167-.227.191a2.3,2.3,0,0,1-.661.039.963.963,0,0,1-.7-.323.816.816,0,0,1-.175-.4,1.591,1.591,0,0,1,.125-.843,2.134,2.134,0,0,1,.56-.823,1.47,1.47,0,0,1,.774-.391,2.283,2.283,0,0,1,.452-.027.765.765,0,0,1,.473.2c.077.068.147.144.226.209a.414.414,0,0,0,.46.033.666.666,0,0,0,.369-.408c0-.005.009-.009.013-.014V.744a2.559,2.559,0,0,0-.211-.339M13.095,1.54l-.4,1.246c-.007.022-.013.04-.045.04h-1L13.1,1.5H13.1a.136.136,0,0,1-.01.039" transform="translate(-8.18 0)" fill="#ed1c24"/>
        <path id="Path_80497" data-name="Path 80497" d="M.994,7.955H.262a.208.208,0,0,0-.2.112C.043,8.11.022,8.155,0,8.2v.084s.01,0,.011.008a.282.282,0,0,0,.31.245H.967A.28.28,0,0,0,1.23,8.4a.288.288,0,0,0,0-.3.25.25,0,0,0-.237-.139" transform="translate(0 -6.725)" fill="#ed1c24"/>
        <path id="Path_80498" data-name="Path 80498" d="M9.433,1.067h.409a.268.268,0,0,0,.263-.244c.014-.11-.043-.289-.178-.3A4.381,4.381,0,0,0,9.433.5a.3.3,0,0,0-.107.02.282.282,0,0,0-.163.347.26.26,0,0,0,.269.2" transform="translate(-7.738 -0.42)" fill="#ed1c24"/>
        <path id="Path_80499" data-name="Path 80499" d="M4.919,15.385a.283.283,0,0,0-.278.283.275.275,0,1,0,.278-.283" transform="translate(-3.922 -13.007)" fill="#ed1c24"/>
      </g>
    </g>
    <g id="Group_1387" data-name="Group 1387" transform="translate(301 449)">
      <g id="Group_1386" data-name="Group 1386" clip-path="url(#clip-path-2)">
        <path id="Path_80500" data-name="Path 80500" d="M18.222,13.457l-2.541-2.541a2.03,2.03,0,0,0-1.939-.542,1.924,1.924,0,0,0-1.393,1.3,1.414,1.414,0,0,1-1.625.884A7.512,7.512,0,0,1,6.236,8.069l-.008-.026a1.33,1.33,0,0,1,.885-1.594A1.927,1.927,0,0,0,8.418,5.055a2.029,2.029,0,0,0-.542-1.939L5.34.572,5.322.558A2.114,2.114,0,0,0,2.443.572L.713,2.3C-1.165,4.28.79,9.255,5.165,13.629A20.915,20.915,0,0,0,11.631,18.2a7.461,7.461,0,0,0,2.769.636,2.863,2.863,0,0,0,2.1-.762l1.724-1.724.014-.015a2.114,2.114,0,0,0-.014-2.879" transform="translate(0 0)" fill="#ed1c24"/>
      </g>
    </g>
  </g>
</svg>
