<svg xmlns="http://www.w3.org/2000/svg" xmlns:xlink="http://www.w3.org/1999/xlink" width="224" height="68" viewBox="0 0 224 68">
  <defs>
    <clipPath id="clip-path">
      <rect id="Rectangle_2086" data-name="Rectangle 2086" width="224" height="68" transform="translate(-7467 1922)" fill="#fff" stroke="#707070" stroke-width="1"/>
    </clipPath>
    <clipPath id="clip-path-2">
      <rect id="Rectangle_2085" data-name="Rectangle 2085" width="224" height="74.972" fill="none"/>
    </clipPath>
  </defs>
  <g id="Mask_Group_661" data-name="Mask Group 661" transform="translate(7467 -1922)" clip-path="url(#clip-path)">
    <g id="Group_6343" data-name="Group 6343" transform="translate(675 -1284)">
      <g id="Group_6335" data-name="Group 6335" transform="translate(-8142 3203)" opacity="0">
        <g id="Group_6334" data-name="Group 6334">
          <g id="Group_6333" data-name="Group 6333" clip-path="url(#clip-path-2)">
            <rect id="Rectangle_2084" data-name="Rectangle 2084" width="223.999" height="74.973" transform="translate(0 0)" fill="#ed1c24"/>
          </g>
        </g>
      </g>
      <path id="Path_3975" data-name="Path 3975" d="M669.03,159.071a13.286,13.286,0,1,1,13.285-13.286,13.3,13.3,0,0,1-13.285,13.286m0-20.761a7.477,7.477,0,1,0,7.47,7.476,7.481,7.481,0,0,0-7.47-7.476" transform="translate(-8654.975 3099.348)" fill="#ed1c24"/>
      <path id="Path_3976" data-name="Path 3976" d="M790.607,159.071a13.286,13.286,0,1,1,13.285-13.286,13.3,13.3,0,0,1-13.285,13.286m0-20.761a7.477,7.477,0,1,0,7.47,7.476,7.481,7.481,0,0,0-7.47-7.476" transform="translate(-8750.081 3099.348)" fill="#ed1c24"/>
      <path id="Path_3977" data-name="Path 3977" d="M223.882,159.071a13.286,13.286,0,1,1,13.277-13.286,13.305,13.305,0,0,1-13.277,13.286m0-20.761a7.477,7.477,0,1,0,7.468,7.476,7.484,7.484,0,0,0-7.468-7.476" transform="translate(-8306.739 3099.348)" fill="#ed1c24"/>
      <path id="Path_3978" data-name="Path 3978" d="M102.211,159.071a13.286,13.286,0,1,1,13.28-13.286,13.305,13.305,0,0,1-13.28,13.286m0-20.761a7.477,7.477,0,1,0,7.472,7.476,7.485,7.485,0,0,0-7.472-7.476" transform="translate(-8211.558 3099.348)" fill="#ed1c24"/>
      <path id="Path_3979" data-name="Path 3979" d="M560.381,92.288l0-1.426s0-.955,0-.955v.369a1.607,1.607,0,0,0-1.607-1.607h-2.611a1.607,1.607,0,0,0-1.607,1.607v-.3s-.014.953-.006.952l-.013,9.584-.535-.33a13.278,13.278,0,1,0,6.351,11.319l.025-17.362c0-.009,0-.972,0-.981Zm-13.3,26.687a7.48,7.48,0,0,1-7.467-7.592,7.572,7.572,0,0,1,7.357-7.36,7.477,7.477,0,1,1,.11,14.952" transform="translate(-8559.567 3133.636)" fill="#ed1c24"/>
      <path id="Path_3980" data-name="Path 3980" d="M499.033,224.519l-3.47-1.975c-.579-.329-.992-1.322-.535-1.778l1.08-.69a1.084,1.084,0,0,1,1.246-.089l3.567,1.968a.991.991,0,0,1,.218,1.6l-.946.852a1,1,0,0,1-1.16.113" transform="translate(-8529.1 3031.03)" fill="#ed1c24"/>
      <path id="Path_3981" data-name="Path 3981" d="M432.49,152.079a8.312,8.312,0,0,1-4.111,1.18l-.332.008a10.945,10.945,0,0,1-1.993-.18,7.435,7.435,0,0,1-5.183-3.859l-.4-.969,20.053.01a12.406,12.406,0,0,0,.244-2.514,13.288,13.288,0,1,0-14.777,13.2l.424.035.31.022c.385.026.782.04,1.211.04.157,0,.3,0,.462-.014a13.539,13.539,0,0,0,9.278-3.487l-5.187-3.469m-11.927-9.134a7.447,7.447,0,0,1,13.822.018l.034.082-13.891-.015Z" transform="translate(-8466.017 3099.377)" fill="#ed1c24"/>
      <path id="Path_3982" data-name="Path 3982" d="M344.659,132.246a11.518,11.518,0,0,0-6.274,2.71v-.966a1.378,1.378,0,0,0-1.376-1.377h-2.93a1.411,1.411,0,0,0-1.41,1.41v15.858h0v7.5a1.379,1.379,0,0,0,1.376,1.377h2.93a1.411,1.411,0,0,0,1.41-1.41l.125-12.144a7.135,7.135,0,0,1,6.567-7.257,7.464,7.464,0,0,1,6.456,2.554l3.7-4.077a12.358,12.358,0,0,0-10.578-4.178" transform="translate(-8402.242 3099.589)" fill="#ed1c24"/>
      <path id="Path_3983" data-name="Path 3983" d="M905.5,106.6a4.826,4.826,0,1,1-4.826-4.826A4.826,4.826,0,0,1,905.5,106.6" transform="translate(-8842.808 3123.383)" fill="#ed1c24"/>
    </g>
  </g>
</svg>
