<?xml version="1.0" encoding="utf-8"?>
<!-- Generator: Adobe Illustrator 26.0.0, SVG Export Plug-In . SVG Version: 6.00 Build 0)  -->
<svg version="1.1" id="Layer_1" xmlns="http://www.w3.org/2000/svg" xmlns:xlink="http://www.w3.org/1999/xlink" x="0px" y="0px"
	 viewBox="0 0 100 125" style="enable-background:new 0 0 100 125;" xml:space="preserve">
<g transform="translate(551.000000, 253.000000)">
	<path d="M-496.6-190.5l16.7,16.7c1.2,1.2,1.2,3.2,0,4.4s-3.2,1.2-4.4,0l-16.7-16.7l-16.7,16.7c-1.2,1.2-3.2,1.2-4.4,0
		s-1.2-3.2,0-4.4l16.7-16.7l-16.7-16.7c-1.2-1.2-1.2-3.2,0-4.4s3.2-1.2,4.4,0l16.7,16.7l16.7-16.7c1.2-1.2,3.2-1.2,4.4,0
		c1.2,1.2,1.2,3.2,0,4.4L-496.6-190.5z"/>
</g>
</svg>
