<svg xmlns="http://www.w3.org/2000/svg" xmlns:xlink="http://www.w3.org/1999/xlink" width="28" height="28" viewBox="0 0 28 28">
  <defs>
    <clipPath id="clip-path">
      <circle id="Mask" cx="14" cy="14" r="14" transform="translate(0.423 0.423)" fill="#fff"/>
    </clipPath>
  </defs>
  <g id="Group_5556" data-name="Group 5556" transform="translate(-0.423 -0.423)">
    <g id="Group_9" data-name="Group 9">
      <circle id="Mask-2" data-name="Mask" cx="14" cy="14" r="14" transform="translate(0.423 0.423)" fill="#ffb14d"/>
    </g>
    <g id="Mask_Group_147" data-name="Mask Group 147" clip-path="url(#clip-path)">
      <path id="Path" d="M20.249,0a2.612,2.612,0,0,0-1.827.751L.761,18.1A2.558,2.558,0,0,0,0,19.932,2.6,2.6,0,0,0,.761,21.76L10.48,31.3a2.6,2.6,0,0,0,3.654,0L29.688,16.026a2.6,2.6,0,0,0,.761-1.828V10.417a2.544,2.544,0,0,0-.711-1.778L22.126.776A2.71,2.71,0,0,0,20.249,0Z" transform="translate(-8.475 20.267) rotate(-45)" fill="#fff"/>
      <path id="Shape" d="M6.374,16.026a1.269,1.269,0,0,1-.95-.4l-.976-.988-.676-.666-1.7-1.7-.351-.346L.394,10.594a1.314,1.314,0,0,1,0-1.877L1.7,7.433l.675-.667L4.923,4.149l.125-.124L7.075,2l.675-.667L8.7.4a1.313,1.313,0,0,1,.95-.4A1.273,1.273,0,0,1,10.6.4l3.352,3.359.325.32,1.352,1.358a1.315,1.315,0,0,1,0,1.877L9.276,13.68l-.675.667L7.325,15.631A1.314,1.314,0,0,1,6.374,16.026Zm.3-3.58-1.7,1.7,1,.987a.5.5,0,0,0,.4.173.594.594,0,0,0,.4-.173l1.3-1.284Zm3-11.73a.59.59,0,0,0-.4.173l-.95.963,1.726,1.753.35.346L2.621,11.779,4.3,13.458,13.43,4.272,10.077.889A.5.5,0,0,0,9.677.716ZM9.376,9.7,7.349,11.754l1.4,1.383,2.027-2.025ZM2.22,7.976.944,9.26a.631.631,0,0,0-.024.84l1,.987,1.7-1.7Zm9.859-.963L10.052,9.038l1.4,1.408L13.48,8.42ZM4.923,5.26,2.9,7.31,4.3,8.717,6.324,6.667Zm9.183-.3L12.755,6.322l1.4,1.408.951-.939a.584.584,0,0,0-.025-.84ZM7.65,2.543,5.623,4.593,7.025,6,9.051,3.951Z" transform="translate(2.856 22.533) rotate(-45)" fill="#d7b354"/>
    </g>
  </g>
</svg>
