<svg xmlns="http://www.w3.org/2000/svg" xmlns:xlink="http://www.w3.org/1999/xlink" width="36" height="36" viewBox="0 0 36 36"><defs><style>.a{fill:#fff;}.b{fill:#ffb14d;}.c{clip-path:url(#a);}.d{fill:#d7b354;}</style><clipPath id="a"><circle class="a" cx="18" cy="18" r="18" transform="translate(-2952 -2518.5)"/></clipPath></defs><g transform="translate(2952 2518.5)"><g transform="translate(-2952 -2518.5)"><circle class="b" cx="18" cy="18" r="18"/></g><g class="c"><path class="a" d="M25.27,0a3.259,3.259,0,0,0-2.28.937L.95,22.594A3.192,3.192,0,0,0,0,24.875a3.246,3.246,0,0,0,.95,2.281L13.078,39.063a3.241,3.241,0,0,0,4.56,0L37.05,20A3.246,3.246,0,0,0,38,17.719V13a3.175,3.175,0,0,0-.887-2.219L27.613.969A3.382,3.382,0,0,0,25.27,0Z" transform="translate(-2962.577 -2493.207) rotate(-45)"/><path class="d" d="M7.955,20a1.584,1.584,0,0,1-1.186-.493L5.551,18.274l-.844-.833L2.583,15.316l-.436-.431L.492,13.22a1.639,1.639,0,0,1,0-2.342l1.624-1.6.843-.833L6.143,5.177,6.3,5.023,8.829,2.5l.844-.833L10.858.493A1.639,1.639,0,0,1,12.045,0a1.581,1.581,0,0,1,1.186.493l4.184,4.191.407.4L19.508,6.78a1.64,1.64,0,0,1,0,2.343l-7.931,7.95-.843.833-1.593,1.6A1.636,1.636,0,0,1,7.955,20Zm.374-4.468h0L6.206,17.658l1.249,1.233a.625.625,0,0,0,.5.216.745.745,0,0,0,.5-.216l1.624-1.6L8.329,15.532ZM12.077.894a.74.74,0,0,0-.5.216l-1.187,1.2L12.545,4.5l.437.432L3.271,14.7l2.092,2.1L16.76,5.332,12.576,1.11A.626.626,0,0,0,12.077.894ZM11.7,12.111h0L9.173,14.669l1.749,1.725,2.529-2.527L11.7,12.111ZM2.771,9.954h0l-1.592,1.6A.787.787,0,0,0,1.147,12.6L2.4,13.836,4.52,11.711,2.771,9.954Zm12.3-1.2h0l-2.529,2.526,1.749,1.757,2.529-2.527L15.074,8.752ZM6.144,6.563h0L3.614,9.122l1.749,1.756L7.893,8.32,6.144,6.563Zm11.46-.37h0l-1.687,1.7,1.749,1.756,1.186-1.171a.728.728,0,0,0-.031-1.048L17.6,6.194ZM9.547,3.174h0L7.018,5.732,8.767,7.488,11.3,4.931,9.547,3.174Z" transform="translate(-2948.435 -2490.379) rotate(-45)"/></g></g></svg>