<svg xmlns="http://www.w3.org/2000/svg" width="14" height="14" viewBox="0 0 14 14"><defs><style>.a{fill:#65c4db;}.b{fill:#fff;}</style></defs><g transform="translate(782.411 -341.589)"><circle class="a" cx="7" cy="7" r="7" transform="translate(-782.411 341.589)"/><g transform="translate(-777.608 345.294)"><path class="b" d="M7.457,0c1.158,0,2.3.533,2.3,1.809,0,1.176-1.348,1.629-1.637,2.054-.217.316-.145.76-.742.76A.576.576,0,0,1,6.8,4.017C6.8,2.94,8.379,2.7,8.379,1.809c0-.488-.325-.778-.868-.778-1.158,0-.706,1.194-1.583,1.194a.541.541,0,0,1-.588-.552A2.007,2.007,0,0,1,7.457,0ZM7.412,5.21a.742.742,0,1,1-.742.742A.745.745,0,0,1,7.412,5.21Z" transform="translate(-5.34)"/></g></g></svg>