<svg width="36" height="36" viewBox="0 0 36 36" fill="none" xmlns="http://www.w3.org/2000/svg">
<path fill-rule="evenodd" clip-rule="evenodd" d="M15.1399 12.1356C15.1841 12.0926 15.2366 12.0585 15.2945 12.0352C15.3523 12.012 15.4143 12 15.4769 12C15.5395 12 15.6015 12.012 15.6594 12.0352C15.7172 12.0585 15.7698 12.0926 15.814 12.1356L21.5268 17.6734C21.5711 17.7163 21.6063 17.7672 21.6303 17.8232C21.6543 17.8793 21.6667 17.9394 21.6667 18.0001C21.6667 18.0608 21.6543 18.1209 21.6303 18.177C21.6063 18.2331 21.5711 18.284 21.5268 18.3269L15.814 23.8647C15.7246 23.9513 15.6033 24 15.4769 24C15.3505 24 15.2293 23.9513 15.1399 23.8647C15.0505 23.778 15.0002 23.6605 15.0002 23.5379C15.0002 23.4154 15.0505 23.2979 15.1399 23.2112L20.5166 18.0001L15.1399 12.789C15.0955 12.7462 15.0604 12.6952 15.0364 12.6392C15.0124 12.5831 15 12.523 15 12.4623C15 12.4016 15.0124 12.3415 15.0364 12.2854C15.0604 12.2294 15.0955 12.1784 15.1399 12.1356V12.1356Z" fill="#929091" stroke="#929091" stroke-width="2"/>
</svg>
