<svg width="36" height="36" viewBox="0 0 36 36" fill="none" xmlns="http://www.w3.org/2000/svg">
<path d="M19.7982 18.0001L14.7919 22.8522L14.7919 22.8522C14.6071 23.0313 14.5002 23.2777 14.5002 23.5379C14.5002 23.7982 14.6071 24.0445 14.7919 24.2237C14.9761 24.4023 15.2228 24.5 15.4769 24.5C15.731 24.5 15.9777 24.4023 16.162 24.2237L21.8744 18.6863L19.7982 18.0001ZM19.7982 18.0001L14.7923 13.1485C14.7922 13.1484 14.7921 13.1483 14.792 13.1482L19.7982 18.0001ZM15.1079 11.5714C14.9906 11.6185 14.8831 11.688 14.7919 11.7766L21.8744 17.3139L16.1624 11.777L15.814 12.1356L16.162 11.7766L16.1622 11.7768C16.0709 11.6881 15.9633 11.6186 15.846 11.5714C15.7285 11.5241 15.6032 11.5 15.4769 11.5C15.3507 11.5 15.2253 11.5241 15.1079 11.5714ZM22.09 17.6265C22.0396 17.5088 21.9662 17.4029 21.8748 17.3144V18.6859C21.9662 18.5974 22.0396 18.4915 22.09 18.3738C22.1405 18.2558 22.1667 18.1288 22.1667 18.0001C22.1667 17.8715 22.1405 17.7444 22.09 17.6265Z" fill="#929091" stroke="#908E8F"/>
</svg>
