<svg xmlns="http://www.w3.org/2000/svg" width="199.373" height="209" viewBox="0 0 199.373 209"><defs><style>.a{fill:#fff;}.b{fill:#ffa300;}.c{fill:#fcbf29;}.d{fill:#fedb41;}.e{fill:#fec478;}.f{fill:#fedbab;}.g{fill:#ff8435;}.h{fill:#ffd500;}</style></defs><g transform="translate(2.373)"><g transform="translate(0 12)"><circle class="a" cx="98.5" cy="98.5" r="98.5" transform="translate(0)"/><path class="b" d="M49.167,0H5.423A5.393,5.393,0,0,0,0,5.469v110.11a5.393,5.393,0,0,0,5.423,5.469H49.167a5.393,5.393,0,0,0,5.423-5.469V5.469A5.393,5.393,0,0,0,49.167,0Z" transform="translate(-2.373 52.217)"/></g><g transform="translate(19)"><ellipse class="c" cx="5.906" cy="5.929" rx="5.906" ry="5.929" transform="translate(115.754 0)"/><path class="d" d="M27.167,54.551h0a5.424,5.424,0,0,1-4.86-3.029L15.875,38.541,3,32.056a5.5,5.5,0,0,1,0-9.8l12.872-6.486L22.306,2.785c1.836-3.714,7.874-3.714,9.721,0l6.436,12.982L51.33,22.252a5.5,5.5,0,0,1,0,9.8L38.463,38.541,32.027,51.523A5.43,5.43,0,0,1,27.167,54.551Z" transform="translate(21.261)"/><path class="c" d="M27.56,11.068H22.048V5.534a5.512,5.512,0,1,0-11.024,0v5.534H5.512a5.534,5.534,0,0,0,0,11.068h5.512v5.534a5.512,5.512,0,1,0,11.024,0V22.137H27.56a5.534,5.534,0,0,0,0-11.068Z" transform="translate(129.928 30.833)"/><path class="e" d="M92.13,161.282H40.379a37.3,37.3,0,0,1-26.667-11.026L1.62,138.267A5,5,0,0,1,0,134.521V69.58a5.323,5.323,0,0,1,5.4-5.352H16.2L33.254,47.207A50.693,50.693,0,0,0,48.585,10.7a10.8,10.8,0,0,1,21.593,0V18.84a111.148,111.148,0,0,1-6.91,38.215l-2.7,7.173H89.864l.864,36.538Z" transform="translate(42.522 23.718)"/><path class="f" d="M42.243,48.622a12.339,12.339,0,0,1,12.09,12.37,12.055,12.055,0,0,1-12.09,12.12H31.449a12.066,12.066,0,1,1,0,24.132H12.09a12.066,12.066,0,1,1,0-24.132A12.055,12.055,0,0,1,0,60.992a12.34,12.34,0,0,1,12.09-12.37A12.031,12.031,0,0,1,0,36.609,12.364,12.364,0,0,1,12.09,24.132,12.066,12.066,0,1,1,12.09,0H42.243a12.066,12.066,0,1,1,0,24.132,12.364,12.364,0,0,1,12.09,12.477A12.032,12.032,0,0,1,42.243,48.622Z" transform="translate(106.304 87.756)"/><path class="g" d="M27.56,0H5.512A5.386,5.386,0,0,0,0,5.363V91.881a5.386,5.386,0,0,0,5.512,5.363H27.56a5.386,5.386,0,0,0,5.512-5.363V5.362A5.386,5.386,0,0,0,27.56,0Z" transform="translate(18.899 78.269)"/><ellipse class="h" cx="5.906" cy="5.929" rx="5.906" ry="5.929" transform="translate(0 151.795)"/></g></g></svg>