<svg xmlns="http://www.w3.org/2000/svg" width="11.612" height="13.737" viewBox="0 0 11.612 13.737"><defs><style>.a{fill:#221e20;}</style></defs><g transform="translate(-3871 -945)"><path class="a" d="M1.339,4.223.8,3.684a.536.536,0,0,1,.758-.758l.539.539A5.751,5.751,0,0,1,5.27,2.15V1.072H4.751A.536.536,0,0,1,4.751,0H6.859a.536.536,0,0,1,0,1.072H6.341V2.15a5.806,5.806,0,1,1-5,2.072Zm4.467,8.443A4.734,4.734,0,1,0,1.072,7.932,4.739,4.739,0,0,0,5.806,12.666Z" transform="translate(3871 945)"/><g transform="translate(3873.898 949.137)"><rect class="a" width="1.093" height="4.371" rx="0.546" transform="translate(2.698 0)"/><rect class="a" width="1.073" height="3.549" rx="0.537" transform="translate(0.537 6.031) rotate(-120)"/></g></g></svg>