<svg xmlns="http://www.w3.org/2000/svg" width="119.136" height="122.007" viewBox="0 0 119.136 122.007"><defs><style>.a{fill:#f4f4f4;}.b{fill:#ff8435;}.c{fill:#ffcb57;}.d{fill:#ffa300;}.e{fill:none;}.f{fill:#fefefe;}</style></defs><circle class="a" cx="59.568" cy="59.568" r="59.568" transform="translate(0 2.871)"/><g transform="translate(25.019)"><g transform="translate(0)"><path class="b" d="M59.7,122.007H7.109A7.136,7.136,0,0,1,0,114.844V7.163A7.137,7.137,0,0,1,7.109,0H59.7a7.136,7.136,0,0,1,7.109,7.163v107.68A7.135,7.135,0,0,1,59.7,122.007Z" transform="translate(0)"/><rect class="c" width="58.459" height="90.454" transform="translate(4.176 12.621)"/><ellipse class="d" cx="5.22" cy="5.259" rx="5.22" ry="5.259" transform="translate(28.186 107.282)"/><path class="d" d="M10.439,4.207H2.088A2.1,2.1,0,0,1,2.088,0h8.351a2.1,2.1,0,0,1,0,4.207Z" transform="translate(22.966 4.207)"/><path class="d" d="M4.176,4.207H2.088A2.1,2.1,0,0,1,2.088,0H4.176a2.1,2.1,0,0,1,0,4.207Z" transform="translate(37.581 4.207)"/></g></g><g transform="translate(24.401)"><rect class="e" width="67.463" height="74.64"/><g transform="translate(0.618)"><path class="b" d="M59.7,122.007H7.109A7.136,7.136,0,0,1,0,114.844V7.163A7.137,7.137,0,0,1,7.109,0H59.7a7.136,7.136,0,0,1,7.109,7.163v107.68A7.135,7.135,0,0,1,59.7,122.007Z" transform="translate(0)"/><rect class="c" width="58.459" height="90.454" transform="translate(4.176 12.621)"/><path class="f" d="M26.414,26.413a1.642,1.642,0,0,1-1.4-.78,5.277,5.277,0,0,0-1.195-1.21,6.459,6.459,0,0,0-4.007-1.311A6.451,6.451,0,0,0,15.8,24.422a5.228,5.228,0,0,0-1.194,1.21,1.651,1.651,0,1,1-2.8-1.743A8.158,8.158,0,0,1,13.8,21.8a9.687,9.687,0,0,1,6.01-1.989A9.689,9.689,0,0,1,25.819,21.8a8.158,8.158,0,0,1,1.995,2.091,1.651,1.651,0,0,1-1.4,2.523ZM37.966,9.905a1.634,1.634,0,0,1-.738-.175l-6.6-3.3a1.651,1.651,0,0,1,0-2.953l6.6-3.3a1.651,1.651,0,0,1,2.3,2,1.638,1.638,0,0,1-.829.954L35.03,4.94,38.7,6.777a1.651,1.651,0,0,1-.737,3.128Zm-36.315,0A1.652,1.652,0,0,1,.912,6.777L4.587,4.94.912,3.127A1.652,1.652,0,0,1,.174.913,1.65,1.65,0,0,1,2.389.174l6.6,3.3a1.651,1.651,0,0,1,0,2.953l-6.6,3.3A1.634,1.634,0,0,1,1.651,9.905Z" transform="translate(13.736 43.061)"/><ellipse class="d" cx="5.22" cy="5.259" rx="5.22" ry="5.259" transform="translate(28.186 107.282)"/><path class="d" d="M10.439,4.207H2.088A2.1,2.1,0,0,1,2.088,0h8.351a2.1,2.1,0,0,1,0,4.207Z" transform="translate(22.966 4.207)"/><path class="d" d="M4.176,4.207H2.088A2.1,2.1,0,0,1,2.088,0H4.176a2.1,2.1,0,0,1,0,4.207Z" transform="translate(37.581 4.207)"/></g></g></svg>