<svg xmlns="http://www.w3.org/2000/svg" width="30.779" height="24.98" viewBox="0 0 30.779 24.98"><defs><style>.a{fill:#ed1c24;}</style></defs><g transform="translate(0 -0.01)"><path class="a" d="M27.023,24.981H3.757A3.761,3.761,0,0,1,0,21.225V7.645A3.58,3.58,0,0,1,3.575,4.07H8.568l.119-.521A4.577,4.577,0,0,1,13.16,0h4.453a4.568,4.568,0,0,1,4.473,3.548l.119.521h5a3.578,3.578,0,0,1,3.573,3.575v13.58A3.76,3.76,0,0,1,27.023,24.981ZM3.575,5.608A2.039,2.039,0,0,0,1.539,7.645v13.58a2.22,2.22,0,0,0,2.218,2.217H27.016a2.22,2.22,0,0,0,2.218-2.217V7.645A2.039,2.039,0,0,0,27.2,5.608H21.59a.767.767,0,0,1-.748-.6L20.584,3.9A3.041,3.041,0,0,0,17.613,1.54H13.16A3.041,3.041,0,0,0,10.188,3.9L9.931,5.012a.764.764,0,0,1-.748.6Z" transform="translate(0 0.009)"/><circle class="a" cx="1.03" cy="1.03" r="1.03" transform="translate(4.177 7.874)"/><path class="a" d="M6.463,12.927a6.464,6.464,0,1,1,6.464-6.464A6.47,6.47,0,0,1,6.463,12.927Zm0-11.388a4.925,4.925,0,1,0,4.926,4.924A4.929,4.929,0,0,0,6.463,1.54Z" transform="translate(8.926 8.112)"/></g></svg>