<svg id="s-roaming" xmlns="http://www.w3.org/2000/svg" width="39" height="39" viewBox="0 0 39 39">
  <g id="Ellipse_292" data-name="Ellipse 292" transform="translate(0 0)">
    <circle id="Ellipse_573" data-name="Ellipse 573" cx="19.5" cy="19.5" r="19.5" transform="translate(0 0)" fill="#fff"/>
  </g>
  <g id="Ellipse_349" data-name="Ellipse 349" transform="translate(8.193 5.987)">
    <g id="Group_5408" data-name="Group 5408" transform="translate(5.055)">
      <path id="Path_3608" data-name="Path 3608" d="M2465.788,300.712c-.036-.036-.068-.073-.1-.11a21.881,21.881,0,0,0-2.143,4.071.508.508,0,1,0,.943.376,20.825,20.825,0,0,1,2.042-3.879A1.889,1.889,0,0,1,2465.788,300.712Z" transform="translate(-2463.508 -294.127)" fill="gray"/>
      <path id="Path_3609" data-name="Path 3609" d="M2490.551,268.948a.508.508,0,0,0-.7-.138,24.5,24.5,0,0,0-4.125,3.47,1.877,1.877,0,0,1,.739.7,23.505,23.505,0,0,1,3.954-3.325A.508.508,0,0,0,2490.551,268.948Z" transform="translate(-2481.209 -268.724)" fill="gray"/>
    </g>
    <path id="Path_3610" data-name="Path 3610" d="M2445.47,292a20.764,20.764,0,0,0-6.518.99.508.508,0,1,0,.356.951,19.735,19.735,0,0,1,6.162-.918A1.911,1.911,0,0,1,2445.47,292Z" transform="translate(-2438.621 -287.27)" fill="gray"/>
    <path id="Path_3611" data-name="Path 3611" d="M2471.9,287.473a2.41,2.41,0,1,1,1.7-4.115h0a2.41,2.41,0,0,1-1.7,4.115Zm0-3.805a1.4,1.4,0,1,0,.986.409h0A1.385,1.385,0,0,0,2471.9,283.668Z" transform="translate(-2463.216 -279.823)" fill="gray"/>
  </g>
  <g id="Ellipse_347" data-name="Ellipse 347" transform="translate(5.999 5.701)">
    <path id="Path_3678" data-name="Path 3678" d="M2441.623,294.914q-.6,0-1.207-.052a.508.508,0,0,1,.088-1.012,12.783,12.783,0,1,0-11.654-12.1.508.508,0,1,1-1.014.05,13.8,13.8,0,1,1,13.787,13.111Z" transform="translate(-2427.819 -267.315)" fill="gray"/>
  </g>
  <g id="Ellipse_348" data-name="Ellipse 348" transform="translate(18.63 6.138)">
    <path id="Path_3679" data-name="Path 3679" d="M2515.108,301.126a2.411,2.411,0,1,1,1.7-4.116h0a2.411,2.411,0,0,1-1.7,4.116Zm0-3.806a1.394,1.394,0,1,0,.986.408A1.39,1.39,0,0,0,2515.108,297.32Z" transform="translate(-2508.088 -290.854)" fill="gray"/>
    <path id="Path_3680" data-name="Path 3680" d="M2512.651,275.568a1.91,1.91,0,0,1,1.012-.117,19.3,19.3,0,0,0-2.2-5.73.508.508,0,0,0-.878.511A18.293,18.293,0,0,1,2512.651,275.568Z" transform="translate(-2506.352 -269.469)" fill="gray"/>
    <g id="Group_5461" data-name="Group 5461" transform="translate(0 4.808)">
      <path id="Path_3681" data-name="Path 3681" d="M2495.681,294.847a1.965,1.965,0,0,1,.187-.162,21.472,21.472,0,0,0-4.267-1.3q-.746-.147-1.472-.244a1.912,1.912,0,0,1-.123,1.01q.693.093,1.4.23a20.487,20.487,0,0,1,3.839,1.147A1.9,1.9,0,0,1,2495.681,294.847Z" transform="translate(-2490.006 -293.14)" fill="gray"/>
      <path id="Path_3682" data-name="Path 3682" d="M2538.365,315.627a17.31,17.31,0,0,0-5.9-6.755,1.9,1.9,0,0,1-.365.985,16.326,16.326,0,0,1,5.354,6.225.508.508,0,0,0,.908-.455Z" transform="translate(-2523.551 -305.676)" fill="gray"/>
    </g>
  </g>
  <g id="Ellipse_350" data-name="Ellipse 350" transform="translate(19.314 15.759)">
    <g id="Group_5462" data-name="Group 5462">
      <path id="Path_3683" data-name="Path 3683" d="M2496.758,373.073a27.65,27.65,0,0,1-3.271,5.057.508.508,0,1,0,.787.642,28.734,28.734,0,0,0,3.392-5.216A1.89,1.89,0,0,1,2496.758,373.073Z" transform="translate(-2493.372 -361.649)" fill="gray"/>
      <path id="Path_3684" data-name="Path 3684" d="M2519.135,316.832a1.906,1.906,0,0,1-1.013.119,21.638,21.638,0,0,1-.249,3.894,24.059,24.059,0,0,1-1.031,4.135,1.893,1.893,0,0,1,.978.311,25.323,25.323,0,0,0,1.058-4.29A22.659,22.659,0,0,0,2519.135,316.832Z" transform="translate(-2512.074 -316.832)" fill="gray"/>
    </g>
    <g id="Group_5463" data-name="Group 5463" transform="translate(2.287 8.373)">
      <path id="Path_3685" data-name="Path 3685" d="M2505.261,362.942l-.055-.007a.508.508,0,0,0-.138,1.006l.1.013A1.91,1.91,0,0,1,2505.261,362.942Z" transform="translate(-2504.63 -361.939)" fill="gray"/>
      <path id="Path_3686" data-name="Path 3686" d="M2532.183,358.257a.508.508,0,0,0-.711-.1c-.625.467-2.867,1.1-6.005,1.131a1.91,1.91,0,0,1-.034,1.012,23.6,23.6,0,0,0,2.77-.182,9.211,9.211,0,0,0,3.877-1.148A.508.508,0,0,0,2532.183,358.257Z" transform="translate(-2521.208 -358.053)" fill="gray"/>
    </g>
    <path id="Path_3687" data-name="Path 3687" d="M2507.04,359.256a2.411,2.411,0,1,1,1.7-4.116h0a2.411,2.411,0,0,1-1.7,4.116Zm0-3.805a1.394,1.394,0,1,0,.987.408h0A1.39,1.39,0,0,0,2507.04,355.45Z" transform="translate(-2502.343 -346.797)" fill="gray"/>
  </g>
  <g id="Group_5514" data-name="Group 5514" transform="translate(15.625 16.778)">
    <g id="Group_5511" data-name="Group 5511">
      <path id="Path_3719" data-name="Path 3719" d="M2480.973,328.151a.491.491,0,0,1-.066,0,.508.508,0,0,1-.438-.569,4.4,4.4,0,0,0-4.686-4.686.508.508,0,0,1-.131-1.007,5.412,5.412,0,0,1,5.823,5.824A.508.508,0,0,1,2480.973,328.151Z" transform="translate(-2475.21 -321.848)" fill="#ed1c24"/>
    </g>
    <g id="Group_5512" data-name="Group 5512" transform="translate(0.155 3.646)">
      <path id="Path_3720" data-name="Path 3720" d="M2477.96,342.3a.521.521,0,0,1-.066,0,.508.508,0,0,1-.438-.569.875.875,0,0,0-.908-.908.508.508,0,0,1-.131-1.007,1.886,1.886,0,0,1,2.047,2.047A.508.508,0,0,1,2477.96,342.3Z" transform="translate(-2475.974 -339.795)" fill="#ed1c24"/>
    </g>
    <g id="Group_5513" data-name="Group 5513" transform="translate(0.161 1.876)">
      <path id="Path_3721" data-name="Path 3721" d="M2479.742,335.349a.523.523,0,0,1-.067,0,.508.508,0,0,1-.438-.569,2.511,2.511,0,0,0-2.661-2.661.508.508,0,0,1-.131-1.007,3.522,3.522,0,0,1,3.8,3.8A.508.508,0,0,1,2479.742,335.349Z" transform="translate(-2476.003 -331.083)" fill="#ed1c24"/>
    </g>
  </g>
  <g id="Group_5534" data-name="Group 5534" transform="translate(5.809 19.327)">
    <path id="Path_3735" data-name="Path 3735" d="M2434.281,335.741l-.058,2.825,4.818,2.422v2.138l-4.889-1.163-.052,2.542,1.137.817v2.065l-2.273-1.094-2.273,1.094v-2.065l1.137-.817-.052-2.542-4.888,1.163v-2.138l4.818-2.422-.058-2.825a1.308,1.308,0,0,1,.376-.948l.01-.01a1.317,1.317,0,0,1,2.247.958Z" transform="translate(-2426.888 -334.397)" fill="#ed1c24"/>
  </g>
</svg>
