<svg xmlns="http://www.w3.org/2000/svg" width="36" height="36" viewBox="0 0 36 36">
  <g id="Group_5551" data-name="Group 5551" transform="translate(-37 -251)">
    <circle id="Oval" cx="18" cy="18" r="18" transform="translate(37 251)" fill="#f8f8f8"/>
    <g id="Group_2289" data-name="Group 2289" transform="translate(0.926 51.247)">
      <path id="Subtraction_7" data-name="Subtraction 7" d="M20.65,16.061H2.293A2.3,2.3,0,0,1,0,13.767L.011,2.294A2.291,2.291,0,0,1,2.293,0H20.65a2.3,2.3,0,0,1,2.3,2.294V13.767A2.3,2.3,0,0,1,20.65,16.061ZM5.011,11.472v2.3H17.933v-2.3ZM16.775,7.25v2.807h2.808V7.25Zm-4.679,0v2.807H14.9V7.25Zm-4.68,0v2.807h2.808V7.25Zm-4.678,0v2.807H5.545V7.25ZM16.775,2.57V5.379h2.808V2.57Zm-4.679,0V5.379H14.9V2.57Zm-4.68,0V5.379h2.808V2.57Zm-4.678,0V5.379H5.545V2.57Z" transform="translate(43.075 209.753)" fill="#ffa300"/>
    </g>
  </g>
</svg>
