<svg xmlns="http://www.w3.org/2000/svg" width="24" height="24" viewBox="0 0 24 24"><defs><style>.a{fill:#ed1c24;}</style></defs><g transform="translate(-2 -2)"><path class="a" d="M23.25,24H19.5a.75.75,0,1,1,0-1.5h3v-3a.75.75,0,1,1,1.5,0v3.75A.751.751,0,0,1,23.25,24ZM4.5,24H.75A.751.751,0,0,1,0,23.25V19.5a.75.75,0,1,1,1.5,0v3h3a.75.75,0,1,1,0,1.5ZM18.75,19.5H5.25a.751.751,0,0,1-.751-.75V5.25A.751.751,0,0,1,5.25,4.5h13.5a.751.751,0,0,1,.75.751v13.5A.751.751,0,0,1,18.75,19.5ZM6,6V18H18V6Zm17.25-.75A.751.751,0,0,1,22.5,4.5v-3h-3a.75.75,0,1,1,0-1.5h3.75A.751.751,0,0,1,24,.75V4.5A.751.751,0,0,1,23.25,5.25Zm-22.5,0A.751.751,0,0,1,0,4.5V.75A.751.751,0,0,1,.75,0H4.5a.75.75,0,1,1,0,1.5h-3v3A.751.751,0,0,1,.75,5.25Z" transform="translate(2 2)"/><rect class="a" width="8" height="8" transform="translate(10 10)"/></g></svg>